<?xml version="1.0" encoding="UTF-8" standalone="no"?>
<svg width="4653px" height="363px" viewBox="0 0 4653 363" version="1.1" xmlns="http://www.w3.org/2000/svg" xmlns:xlink="http://www.w3.org/1999/xlink" xmlns:sketch="http://www.bohemiancoding.com/sketch/ns">
    <!-- Generator: Sketch 3.3.3 (12072) - http://www.bohemiancoding.com/sketch -->
    <title>Untitled 2</title>
    <desc>Created with Sketch.</desc>
    <defs></defs>
    <g id="Page-1" stroke="none" stroke-width="1" fill="none" fill-rule="evenodd" sketch:type="MSPage">
        <g id="ObserverTitle" sketch:type="MSLayerGroup" fill="#48484A">
            <g id="Page-1" sketch:type="MSShapeGroup">
                <g id="ObserverTitle">
                    <g id="Group">
                        <path d="M104.72678,92.2802034 L0.22508475,92.2802034 L0.22508475,7.68359322 L305.768136,7.68359322 L305.768136,92.2802034 L201.266441,92.2802034 L201.266441,356.022576 L104.72678,356.022576 L104.72678,92.2802034 L104.72678,92.2802034 Z" id="Shape"></path>
                        <path d="M504.812763,362.491729 C479.931407,362.491729 457.538186,359.338017 437.633102,353.036814 C417.728017,346.73561 400.808695,337.031881 386.875136,323.925627 C372.941576,310.825593 362.242593,294.242169 354.778186,274.162915 C347.31378,254.096102 343.581576,230.458814 343.581576,203.251051 L343.581576,7.68359322 L442.111746,7.68359322 L442.111746,201.260542 C442.111746,226.477797 447.865559,245.138814 459.385627,257.243593 C470.911915,269.354593 486.381898,275.406983 505.801797,275.406983 C525.221695,275.406983 540.691678,269.603407 552.211746,257.990034 C563.738034,246.376661 569.498068,228.300356 569.498068,203.748678 L569.498068,7.68359322 L668.028237,7.68359322 L668.028237,200.762915 C668.028237,228.965932 664.128085,253.262576 656.334,273.665288 C648.533695,294.068 637.585898,310.825593 623.49061,323.925627 C609.382881,337.031881 592.301831,346.73561 572.235017,353.036814 C552.161983,359.331797 529.694119,362.491729 504.812763,362.491729 L504.812763,362.491729 L504.812763,362.491729 Z" id="Shape"></path>
                        <path d="M725.255356,7.68359322 L1003.92654,7.68359322 L1003.92654,92.2802034 L821.795017,92.2802034 L821.795017,151.000203 L986.509593,151.000203 L986.509593,231.615797 L821.795017,231.615797 L821.795017,356.022576 L725.255356,356.022576 L725.255356,7.68359322 L725.255356,7.68359322 Z" id="Shape"></path>
                        <path d="M1132.81197,92.2802034 L1028.31027,92.2802034 L1028.31027,7.68359322 L1333.85332,7.68359322 L1333.85332,92.2802034 L1229.35163,92.2802034 L1229.35163,356.022576 L1132.81197,356.022576 L1132.81197,92.2802034 L1132.81197,92.2802034 Z" id="Shape"></path>
                        <path d="M1512.99286,361.987881 C1481.80408,361.987881 1452.19527,357.142237 1424.16642,347.475831 C1396.12514,337.790763 1371.33086,323.266271 1349.77117,303.908576 L1403.5149,239.57161 C1438.3488,267.438729 1476.00051,281.372288 1516.47625,281.372288 C1529.41456,281.372288 1539.28002,279.300915 1546.08507,275.16439 C1552.8839,271.027864 1556.28642,265.143424 1556.28642,257.523508 L1556.28642,256.534475 C1556.28642,252.895576 1555.4529,249.661 1553.79829,246.849407 C1552.13124,244.031593 1549.07083,241.300864 1544.59219,238.651 C1540.11354,236.007356 1534.14202,233.444576 1526.67761,230.956441 C1519.2132,228.468305 1509.50947,225.905525 1497.56642,223.249441 C1478.98627,218.951186 1461.73727,214.229949 1445.8132,209.098169 C1429.88914,203.96639 1416.03022,197.341729 1404.26134,189.224186 C1392.48002,181.112864 1383.18683,171.017254 1376.39422,158.924915 C1369.58917,146.845017 1366.19286,131.84778 1366.19286,113.964305 L1366.19286,112.975271 C1366.19286,96.7464068 1369.25949,81.8424746 1375.39897,68.2634746 C1381.53222,54.6844746 1390.48951,42.9342542 1402.27083,32.9941525 C1414.04593,23.0540508 1428.22208,15.3594915 1444.81795,9.8918136 C1461.40137,4.43657627 1480.14947,1.69962712 1501.04981,1.69962712 C1530.90744,1.69962712 1557.53049,5.62466102 1580.91897,13.4747288 C1604.30744,21.3185763 1625.45659,32.9195085 1644.36642,48.2713051 L1596.09659,116.657712 C1580.17253,105.386458 1563.82547,96.8397119 1547.08032,91.0299153 C1530.32273,85.226339 1514.15607,82.3214407 1498.56168,82.3214407 C1486.94208,82.3214407 1478.23361,84.473678 1472.43625,88.7843729 C1466.62646,93.0950678 1463.72778,98.3885763 1463.72778,104.677339 L1463.72778,105.672593 C1463.72778,109.64739 1464.63595,113.118339 1466.46473,116.097881 C1468.28107,119.083644 1471.441,121.808153 1475.91964,124.296288 C1480.39829,126.784424 1486.53154,129.266339 1494.33185,131.748254 C1502.11971,134.23639 1511.99761,136.799169 1523.94066,139.442814 C1543.84575,143.753508 1561.83497,148.798203 1577.9332,154.589339 C1594.019,160.392915 1607.70375,167.428119 1618.98744,175.70739 C1630.25869,183.992881 1638.89253,194.001407 1644.86405,205.764068 C1650.83558,217.520508 1653.82134,231.516271 1653.82134,247.732695 L1653.82134,248.727949 C1653.82134,266.611424 1650.41881,282.51061 1643.61998,296.419288 C1636.81493,310.327966 1627.27915,322.171492 1615.00642,331.937424 C1602.72747,341.709576 1587.96661,349.161542 1570.71761,354.293322 C1553.46239,359.425102 1534.22288,361.987881 1512.99286,361.987881 L1512.99286,361.987881 L1512.99286,361.987881 Z" id="Shape"></path>
                        <path d="M2013.59953,362.989356 C1986.72766,362.989356 1961.84631,358.261898 1938.95546,348.806983 C1916.06461,339.352068 1896.32125,326.500847 1879.73783,310.240881 C1863.14819,293.987136 1850.12902,274.909356 1840.6741,253.013763 C1831.21919,231.118169 1826.49173,207.729695 1826.49173,182.848339 L1826.49173,181.853085 C1826.49173,156.971729 1831.21919,133.50861 1840.6741,111.438847 C1850.12902,89.3815254 1863.31614,70.1357966 1880.23546,53.7141017 C1897.15478,37.2924068 1917.05986,24.3541017 1939.95071,14.8991864 C1962.84156,5.44427119 1987.72292,0.71681356 2014.59478,0.71681356 C2041.46664,0.71681356 2066.348,5.44427119 2089.23885,14.8991864 C2112.12969,24.3541017 2131.86683,37.2115424 2148.45647,53.4652881 C2165.0399,69.7252542 2178.06529,88.7968136 2187.5202,110.692407 C2196.97512,132.588 2201.70258,155.976475 2201.70258,180.857831 L2201.70258,181.853085 C2201.70258,206.734441 2196.9689,230.21 2187.5202,252.267322 C2178.05907,274.337085 2164.87817,293.570373 2147.95885,309.992068 C2131.03953,326.413763 2111.13444,339.352068 2088.24359,348.806983 C2065.34653,358.255678 2040.46517,362.989356 2013.59953,362.989356 L2013.59953,362.989356 L2013.59953,362.989356 Z M2014.34597,275.90461 C2027.65127,275.90461 2039.79337,273.416475 2050.77227,268.440203 C2061.75117,263.463932 2071.06924,256.745966 2078.72025,248.286305 C2086.37127,239.826644 2092.35524,229.961186 2096.67837,218.677492 C2101.00151,207.406237 2103.17241,195.463186 2103.17241,182.848339 L2103.17241,181.853085 C2103.17241,169.250678 2101.00151,157.307627 2096.67837,146.023932 C2092.35524,134.752678 2086.1971,124.793915 2078.22263,116.166305 C2070.23571,107.544915 2060.75592,100.659 2049.77702,95.5147797 C2038.79812,90.3767797 2026.65602,87.8015593 2013.35071,87.8015593 C2000.03919,87.8015593 1987.97795,90.2896949 1977.17322,95.2659661 C1966.35605,100.242237 1957.0442,106.960203 1949.21902,115.419864 C1941.40005,123.879525 1935.40986,133.757424 1931.25468,145.028678 C1927.09949,156.306153 1925.0219,168.255424 1925.0219,180.857831 L1925.0219,181.853085 C1925.0219,194.461712 1927.18658,206.404763 1931.50349,217.682237 C1935.82663,228.965932 1941.89768,238.918475 1949.72286,247.539864 C1957.53561,256.167475 1966.94076,263.05339 1977.91966,268.19139 C1988.89234,273.33561 2001.03444,275.90461 2014.34597,275.90461 L2014.34597,275.90461 L2014.34597,275.90461 Z" id="Shape"></path>
                        <path d="M2251.95669,7.68359322 L2430.30003,7.68359322 C2452.15831,7.68359322 2470.86908,10.3458983 2486.43859,15.6456271 C2502.0081,20.9577966 2514.92153,28.7581017 2525.19131,39.0341017 C2532.13942,46.0008814 2537.6071,54.1308644 2541.5819,63.4178305 C2545.55669,72.7110169 2547.5472,83.3229153 2547.5472,95.2659661 L2547.5472,96.2612203 C2547.5472,116.495983 2542.50251,132.836814 2532.44422,145.277492 C2522.37349,157.718169 2509.58447,167.260169 2494.07717,173.891051 C2515.37561,180.857831 2532.26383,190.891237 2544.74805,203.997492 C2557.22605,217.103746 2563.47127,235.435085 2563.47127,258.985288 L2563.47127,259.980542 C2563.47127,290.174068 2551.93876,313.724271 2528.88619,330.643593 C2505.82117,347.562915 2473.39454,356.022576 2431.59386,356.022576 L2251.95047,356.022576 L2251.95047,7.68359322 L2251.95669,7.68359322 L2251.95669,7.68359322 Z M2406.71873,146.515339 C2421.64754,146.515339 2433.0121,144.027203 2440.80619,139.050932 C2448.59405,134.074661 2452.50042,126.448525 2452.50042,116.160085 L2452.50042,115.164831 C2452.50042,105.548186 2448.84286,98.1708644 2441.55263,93.0204237 C2434.24995,87.8762034 2423.29593,85.3072034 2408.70924,85.3072034 L2346.00822,85.3072034 L2346.00822,146.515339 L2406.71873,146.515339 L2406.71873,146.515339 Z M2420.65229,278.392746 C2435.5811,278.392746 2447.02653,275.655797 2454.98856,270.181898 C2462.95059,264.708 2466.93161,256.833051 2466.93161,246.54461 L2466.93161,245.549356 C2466.93161,235.932712 2463.11854,228.300356 2455.48619,222.658508 C2447.84761,217.022881 2435.91078,214.198847 2419.65703,214.198847 L2346.00822,214.198847 L2346.00822,278.392746 L2420.65229,278.392746 L2420.65229,278.392746 Z" id="Shape"></path>
                        <path d="M2744.60132,361.987881 C2713.41254,361.987881 2683.80995,357.142237 2655.77488,347.475831 C2627.73981,337.790763 2602.94554,323.266271 2581.37963,303.908576 L2635.12958,239.57161 C2669.96347,267.438729 2707.60897,281.372288 2748.08471,281.372288 C2761.02302,281.372288 2770.89469,279.300915 2777.69975,275.16439 C2784.49236,271.027864 2787.9011,265.143424 2787.9011,257.523508 L2787.9011,256.534475 C2787.9011,252.895576 2787.06758,249.661 2785.41297,246.849407 C2783.75214,244.031593 2780.68551,241.300864 2776.21308,238.651 C2771.73444,236.007356 2765.76292,233.444576 2758.29851,230.956441 C2750.8341,228.468305 2741.13037,225.905525 2729.18732,223.249441 C2710.60095,218.951186 2693.35195,214.229949 2677.4341,209.098169 C2661.50381,203.96639 2647.65112,197.341729 2635.88224,189.224186 C2624.09469,181.112864 2614.80773,171.017254 2608.01512,158.924915 C2601.21007,146.845017 2597.81376,131.84778 2597.81376,113.964305 L2597.81376,112.975271 C2597.81376,96.7464068 2600.87417,81.8424746 2607.01364,68.2634746 C2613.1469,54.6844746 2622.11041,42.9342542 2633.88551,32.9941525 C2645.66061,23.0540508 2659.83676,15.3594915 2676.43263,9.8918136 C2693.01605,4.43657627 2711.76415,1.69962712 2732.66449,1.69962712 C2762.52212,1.69962712 2789.14517,5.62466102 2812.53364,13.4747288 C2835.92212,21.3247966 2857.07127,32.9195085 2875.9811,48.2713051 L2827.71127,116.657712 C2811.78098,105.386458 2795.44015,96.8397119 2778.695,91.0299153 C2761.93741,85.226339 2745.76453,82.3214407 2730.17014,82.3214407 C2718.55676,82.3214407 2709.84207,84.473678 2704.05093,88.7843729 C2698.23492,93.0950678 2695.34246,98.3885763 2695.34246,104.677339 L2695.34246,105.672593 C2695.34246,109.64739 2696.25063,113.118339 2698.07941,116.097881 C2699.89575,119.083644 2703.05568,121.808153 2707.53432,124.296288 C2712.01297,126.784424 2718.14622,129.266339 2725.94653,131.748254 C2733.74061,134.23639 2743.61229,136.799169 2755.55534,139.442814 C2775.46042,143.753508 2793.45586,148.798203 2809.5541,154.589339 C2825.6399,160.392915 2839.32464,167.428119 2850.60834,175.70739 C2861.87959,183.992881 2870.51342,194.001407 2876.48495,205.764068 C2882.45647,217.520508 2885.43602,231.516271 2885.43602,247.732695 L2885.43602,248.727949 C2885.43602,266.611424 2882.03349,282.51061 2875.23466,296.419288 C2868.42961,310.327966 2858.88761,322.171492 2846.6211,331.937424 C2834.34215,341.709576 2819.57507,349.161542 2802.33229,354.293322 C2785.07085,359.425102 2765.82512,361.987881 2744.60132,361.987881 L2744.60132,361.987881 L2744.60132,361.987881 Z" id="Shape"></path>
                        <path d="M2932.20053,7.68359322 L3211.86697,7.68359322 L3211.86697,89.7920678 L3027.24731,89.7920678 L3027.24731,142.540542 L3194.45002,142.540542 L3194.45002,218.677492 L3027.24731,218.677492 L3027.24731,273.914102 L3214.3551,273.914102 L3214.3551,356.022576 L2932.20053,356.022576 L2932.20053,7.68359322 L2932.20053,7.68359322 Z" id="Shape"></path>
                        <path d="M3264.11781,7.68359322 L3428.83239,7.68359322 C3455.69803,7.68359322 3478.42093,11.0052542 3497.00731,17.6361356 C3515.58124,24.2732373 3530.67178,33.5602034 3542.28515,45.5032542 C3562.85581,65.408339 3573.13803,92.4481525 3573.13803,126.616475 L3573.13803,127.611729 C3573.13803,154.483593 3566.66888,176.715085 3553.73058,194.293763 C3540.79849,211.884881 3523.37532,225.314593 3501.48595,234.601559 L3584.58968,356.022576 L3473.11498,356.022576 L3402.95578,250.525627 L3401.96053,250.525627 L3360.65747,250.525627 L3360.65747,356.022576 L3264.11159,356.022576 L3264.11159,7.68359322 L3264.11781,7.68359322 L3264.11781,7.68359322 Z M3424.34753,174.880085 C3440.93717,174.880085 3453.71375,171.147881 3462.66481,163.683475 C3471.6221,156.219068 3476.10075,146.191881 3476.10075,133.577034 L3476.10075,132.58178 C3476.10075,118.64822 3471.45415,108.285136 3462.16719,101.480085 C3452.88022,94.6812542 3440.10364,91.2787288 3423.8499,91.2787288 L3360.65747,91.2787288 L3360.65747,174.880085 L3424.34753,174.880085 L3424.34753,174.880085 Z" id="Shape"></path>
                        <path d="M3594.04459,7.68359322 L3702.02346,7.68359322 L3781.14617,228.132407 L3860.2751,7.68359322 L3966.26968,7.68359322 L3824.93736,358.510712 L3735.37069,358.510712 L3594.04459,7.68359322 L3594.04459,7.68359322 Z" id="Shape"></path>
                        <path d="M4000.1021,7.68359322 L4279.76854,7.68359322 L4279.76854,89.7920678 L4095.14888,89.7920678 L4095.14888,142.540542 L4262.35159,142.540542 L4262.35159,218.677492 L4095.14888,218.677492 L4095.14888,273.914102 L4282.25668,273.914102 L4282.25668,356.022576 L4000.1021,356.022576 L4000.1021,7.68359322 L4000.1021,7.68359322 Z" id="Shape"></path>
                        <path d="M4332.01317,7.68359322 L4496.72775,7.68359322 C4523.59339,7.68359322 4546.31629,11.0052542 4564.90266,17.6361356 C4583.47659,24.2732373 4598.56714,33.5602034 4610.18051,45.5032542 C4630.75117,65.408339 4641.03339,92.4481525 4641.03339,126.616475 L4641.03339,127.611729 C4641.03339,154.483593 4634.56424,176.715085 4621.62593,194.293763 C4608.69385,211.884881 4591.27068,225.314593 4569.38131,234.601559 L4652.48503,356.022576 L4541.01034,356.022576 L4470.85114,250.525627 L4469.85588,250.525627 L4428.55283,250.525627 L4428.55283,356.022576 L4332.00695,356.022576 L4332.00695,7.68359322 L4332.01317,7.68359322 L4332.01317,7.68359322 Z M4492.2491,174.880085 C4508.83875,174.880085 4521.61532,171.147881 4530.56639,163.683475 C4539.52368,156.219068 4544.00232,146.191881 4544.00232,133.577034 L4544.00232,132.58178 C4544.00232,118.64822 4539.35573,108.285136 4530.06876,101.480085 C4520.7818,94.6812542 4508.00522,91.2787288 4491.75147,91.2787288 L4428.55905,91.2787288 L4428.55905,174.880085 L4492.2491,174.880085 L4492.2491,174.880085 Z" id="Shape"></path>
                    </g>
                </g>
            </g>
        </g>
    </g>
</svg>